<svg width="36" height="36" viewBox="0 0 24 24" fill="none" xmlns="http://www.w3.org/2000/svg" transform="rotate(0 0 0)">
<path fill-rule="evenodd" clip-rule="evenodd" d="M12.75 2.75098C12.75 2.33676 12.4142 2.00098 12 2.00098C11.5858 2.00098 11.25 2.33676 11.25 2.75098V3.53801C7.46001 3.9143 4.5 7.11197 4.5 11.001V17.501H4C3.58579 17.501 3.25 17.8368 3.25 18.251C3.25 18.6652 3.58579 19.001 4 19.001H20C20.4142 19.001 20.75 18.6652 20.75 18.251C20.75 17.8368 20.4142 17.501 20 17.501H19.5V11.001C19.5 7.11197 16.54 3.9143 12.75 3.53801V2.75098ZM18 17.501V11.001C18 7.68727 15.3137 5.00098 12 5.00098C8.68629 5.00098 6 7.68727 6 11.001V17.501H18Z" fill="#ffffff"></path>
<path d="M10.5 20.5002C10.0858 20.5002 9.75 20.836 9.75 21.2502C9.75 21.6645 10.0858 22.0002 10.5 22.0002H13.5C13.9142 22.0002 14.25 21.6645 14.25 21.2502C14.25 20.836 13.9142 20.5002 13.5 20.5002H10.5Z" fill="#ffffff"></path>
</svg>