<svg width="40" height="40" viewBox="0 0 25 24" fill="#ffffff" xmlns="http://www.w3.org/2000/svg">
<path d="M4.75 3.75C4.75 2.7835 5.5335 2 6.5 2H10.5C11.4665 2 12.25 2.7835 12.25 3.75V6.12838C12.25 7.09488 11.4665 7.87838 10.5 7.87838H9.25V11.5H14.25V11.25C14.25 10.2835 15.0335 9.5 16 9.5H18C18.9665 9.5 19.75 10.2835 19.75 11.25V13.25C19.75 14.2165 18.9665 15 18 15H16C15.0335 15 14.25 14.2165 14.25 13.25V13H9.25L9.25 17.75C9.25 18.1642 9.58579 18.5 10 18.5H14.25V18.25C14.25 17.2835 15.0335 16.5 16 16.5H18C18.9665 16.5 19.75 17.2835 19.75 18.25V20.25C19.75 21.2165 18.9665 22 18 22H16C15.0335 22 14.25 21.2165 14.25 20.25V20H10C8.75736 20 7.75 18.9926 7.75 17.75L7.75 12.2506C7.75 12.2504 7.75 12.2508 7.75 12.2506C7.75 12.2504 7.75 12.2496 7.75 12.2494L7.75 7.87838H6.5C5.5335 7.87838 4.75 7.09488 4.75 6.12838V3.75ZM10.5 6.37838C10.6381 6.37838 10.75 6.26645 10.75 6.12838V3.75C10.75 3.61193 10.6381 3.5 10.5 3.5H6.5C6.36193 3.5 6.25 3.61193 6.25 3.75V6.12838C6.25 6.26645 6.36193 6.37838 6.5 6.37838H10.5ZM15.75 20.25C15.75 20.3881 15.8619 20.5 16 20.5H18C18.1381 20.5 18.25 20.3881 18.25 20.25V18.25C18.25 18.1119 18.1381 18 18 18H16C15.8619 18 15.75 18.1119 15.75 18.25V20.25ZM15.75 13.25C15.75 13.3881 15.8619 13.5 16 13.5H18C18.1381 13.5 18.25 13.3881 18.25 13.25V11.25C18.25 11.1119 18.1381 11 18 11H16C15.8619 11 15.75 11.1119 15.75 11.25V13.25Z" fill="#ffffff"></path>
</svg>
