<svg width="80" height="80" viewBox="0 0 24 25" fill="#ffffff" xmlns="http://www.w3.org/2000/svg" transform="rotate(0 0 0)">
<path d="M18.1747 2.91119C17.4785 2.50926 16.6208 2.50926 15.9247 2.91119L13.2245 4.47016C12.5283 4.87209 12.0995 5.61487 12.0995 6.41872V7.44107L13.5995 8.3071V6.41872C13.5995 6.15077 13.7424 5.90318 13.9745 5.7692L16.6747 4.21023C16.9067 4.07625 17.1926 4.07625 17.4247 4.21023L20.1249 5.7692C20.357 5.90318 20.4999 6.15077 20.4999 6.41872V9.53667C20.4999 9.80462 20.357 10.0522 20.1249 10.1862L17.4247 11.7452C17.3041 11.8148 17.169 11.8482 17.0345 11.8455C17.0709 12.0554 17.0897 12.27 17.0897 12.4873V13.3453C17.4648 13.3386 17.8386 13.2383 18.1747 13.0442L20.8749 11.4852C21.5711 11.0833 21.9999 10.3405 21.9999 9.53667V6.41872C21.9999 5.61487 21.5711 4.87209 20.8749 4.47016L18.1747 2.91119Z" fill="#ffffff"></path>
<path d="M15.5497 7.97769C15.5497 8.80612 16.2213 9.47769 17.0497 9.47769C17.8781 9.47769 18.5497 8.80612 18.5497 7.97769C18.5497 7.14927 17.8781 6.47769 17.0497 6.47769C16.2213 6.47769 15.5497 7.14927 15.5497 7.97769Z" fill="#ffffff"></path>
<path fill-rule="evenodd" clip-rule="evenodd" d="M11.8605 15.1113C11.8605 13.4185 10.4883 12.0463 8.79555 12.0463C7.10279 12.0463 5.73055 13.4185 5.73055 15.1113C5.73055 16.804 7.10279 18.1763 8.79555 18.1763C10.4883 18.1763 11.8605 16.804 11.8605 15.1113ZM8.79555 13.5463C9.65987 13.5463 10.3605 14.2469 10.3605 15.1113C10.3605 15.9756 9.65987 16.6763 8.79555 16.6763C7.93122 16.6763 7.23055 15.9756 7.23055 15.1113C7.23055 14.2469 7.93122 13.5463 8.79555 13.5463Z" fill="#ffffff"></path>
<path fill-rule="evenodd" clip-rule="evenodd" d="M9.9199 7.91472C9.22375 7.5128 8.36605 7.5128 7.6699 7.91472L3.125 10.5387C2.42885 10.9406 2 11.6834 2 12.4873V17.7353C2 18.5391 2.42885 19.2819 3.125 19.6838L7.6699 22.3078C8.36605 22.7098 9.22375 22.7098 9.9199 22.3078L14.4648 19.6838C15.1609 19.2819 15.5898 18.5391 15.5898 17.7353V12.4873C15.5898 11.6834 15.1609 10.9406 14.4648 10.5387L9.9199 7.91472ZM8.4199 9.21376C8.65195 9.07979 8.93785 9.07979 9.1699 9.21376L13.7148 11.8378C13.9468 11.9717 14.0898 12.2193 14.0898 12.4873V17.7353C14.0898 18.0032 13.9468 18.2508 13.7148 18.3848L9.1699 21.0088C8.93785 21.1428 8.65195 21.1428 8.4199 21.0088L3.875 18.3848C3.64295 18.2508 3.5 18.0032 3.5 17.7353V12.4873C3.5 12.2193 3.64295 11.9717 3.875 11.8378L8.4199 9.21376Z" fill="#ffffff"></path>
</svg>
